<?xml version="1.0" encoding="utf-8"?>
<!-- Generator: Adobe Illustrator 26.3.1, SVG Export Plug-In . SVG Version: 6.00 Build 0)  -->
<svg version="1.1" xmlns="http://www.w3.org/2000/svg" xmlns:xlink="http://www.w3.org/1999/xlink" x="0px" y="0px"
	 viewBox="0 0 576.4 132.9" style="enable-background:new 0 0 576.4 132.9;" xml:space="preserve">
<style type="text/css">
	.st0{fill:#FFFFFF;}
</style>
<g id="Warstwa_1">
	<g>
		<path class="st0" d="M30.6,40c-0.9,0.9-0.7,2.5,0.5,3.7l1.6,2.1c0.6,0.8,0.7,2,0.2,2.9c-1.6,2.7-2.8,5.6-3.6,8.5
			c-0.3,1-1.2,1.8-2.2,1.9l-2.6,0.4c-1.6,0-2.9,1-2.9,2.3l0,9c0,1.3,1.3,2.3,2.9,2.3l2.6,0.4c1,0.2,1.9,0.9,2.2,1.9
			c0.4,1.7,1,3.4,1.7,5c0.5,1.2,1.1,2.4,1.8,3.5c0.5,0.9,0.4,2.1-0.2,2.9l-1.6,2.1c-0.9,0.9-1.2,2.1-0.9,3c0.1,0.2,0.2,0.5,0.4,0.7
			l6.3,6.4c0.8,0.8,2.2,0.7,3.3-0.2c0.1-0.1,0.2-0.2,0.3-0.3l2.1-1.6c0.9-0.6,2-0.7,2.9-0.2c2.7,1.6,5.6,2.8,8.6,3.6
			c0.1,0,0.3,0.1,0.4,0.2c0.8,0.4,1.4,1.1,1.5,2l0.3,2.6c0,1.6,1,2.9,2.3,3l9,0c1.3,0,2.3-1.3,2.3-2.9l0.5-2.5c0.2-1,1.1-1.7,2.1-2
			c3-0.8,5.7-0.8,10.9-2.8c2.5-0.9,4.5-2,8.6-5.1c1.9-1.4,4.9-4.6,6.9-7.7c2.5-3.8,3-5.9,4-9.5l0,0c0.4-1.6,0.9-6.1,1-7.9
			c0-3-0.9-10.9-2.8-12.7c-1.2,2.2,0.1,4-14.2,13.4c-0.1,0-0.2,0.1-0.2,0.1c-4.7,2.7-8,9.6-9,14.5c-0.2,0.9-0.2,2.4-0.4,3.3
			c7.5,0.1,15.1-9.2,18.9-14.2c-6.7,21.4-32.2,24.7-47.3,16.9c2.4,0.4,4.4,0.8,5.5,0.9c3.7,0.4,7,0.5,10.6-0.3
			c2.5-0.6,4.6-1.3,6.5-2.5c6.4-3.8,8.1-13.2,8.4-15.5c0-0.3,0.1-0.6,0.1-0.8c0,0,0-0.1,0-0.1c0.1-1.3,0-2.7-0.2-4
			c-0.1-0.7-0.2-1.4-0.3-2c-0.6-3.1-1.7-6-2.9-8.9c-0.1-0.1-0.1-0.3-0.2-0.5c-0.6,0.4-1.2,0.8-1.7,1.3c-2.2,1.8-4.4,3.7-6.3,5.8
			c-1.5,1.7-3,3.5-3.8,5.6c0,0,0,0.1-0.1,0.1c-1.3,3.4-1.1,6.7,0.9,9.8c0,0.1,0.1,0.1,0.1,0.2c0.2,0.3,1.1,1.3,1.3,1.6
			c0.1,0.1,0,1.2-0.2,2.2c4.6-4,6.6-10.2,7.7-16.3c0.1,0.2,0.2,0.3,0.2,0.5c0.5,5.2-0.7,9.7-3.4,14.1c-1,1.6-3.5,3.7-4.6,4.5
			c-2.4,1.5-7.3,2-9.1,1.9c0,0,0,0,0,0c-3.2-0.3-3.9-0.7-5.9-1.8c-1.6-0.9-2.8-1.9-4-3.2c-1.9-2-3.4-4.2-4.5-6.6
			c-3.8-8.5-1.9-18.9,5.7-25.5c8.2-7.2,20.6-7.2,28.9-0.1c2.6,2.2,4.5,4.8,5.7,7.7c0.3,0.6,1,0.9,1.6,0.6l9.9-4.1
			c0.6-0.3,0.9-1,0.6-1.6c-0.5-1.1-1.1-2.3-1.7-3.4c-0.5-0.9-0.4-2.1,0.2-2.9l1.6-2.1c1.2-1.1,1.4-2.8,0.5-3.7l-6.3-6.4
			c-0.9-0.9-2.5-0.7-3.7,0.5l-2.1,1.6c-0.9,0.6-2,0.7-2.9,0.2c-2.7-1.6-5.6-2.8-8.5-3.6c-1-0.3-1.8-1.1-1.9-2.2l-0.4-2.6
			c0-1.6-1-2.9-2.3-3l-9,0c-1.3,0-2.3,1.3-2.3,2.9l-0.4,2.6c-0.2,1-0.9,1.9-1.9,2.2c-3,0.8-5.9,1.9-8.6,3.5
			c-0.9,0.5-2.1,0.4-2.9-0.2l-2.1-1.6c-1.1-1.2-2.8-1.4-3.7-0.5L30.6,40z"/>
		<g>
			<path class="st0" d="M178.9,90.5h-7.8l10.2-19.7l-17.6-28.4h8.6l12.3,21l11.9-21h8.3l-15.6,27.8L178.9,90.5z"/>
			<path class="st0" d="M209,90.5V42.4h17.7c6.5,0,11.8,2.3,15.8,7c4,4.6,5.9,10.4,5.9,17.2c0,6.8-2,12.5-6.1,17.1
				c-4.1,4.6-9.9,6.9-17.5,6.9H209z M217.9,83.4h7.2c3.9,0,7.2-1.5,9.9-4.4c2.7-2.9,4-7.2,4-13c0-4.7-1.2-8.7-3.5-11.9
				c-2.4-3.3-5.5-4.9-9.3-4.9h-8.2V83.4z"/>
			<path class="st0" d="M293.9,90.5h-9.2l-7.5-19.7h-12.2v19.7h-8.7V42.4h20.8c5.8,0,10.1,1.3,12.8,3.9c2.7,2.6,4.1,6,4.1,10.2
				c0,6.2-2.9,10.4-8.7,12.7L293.9,90.5z M265.1,63.8h10.8c3.1,0,5.4-0.7,7-2c1.5-1.3,2.3-3.1,2.3-5.4c0-2.1-0.8-3.8-2.3-5.1
				c-1.5-1.3-3.6-2-6.3-2h-11.5V63.8z"/>
			<path class="st0" d="M319.8,91.2c-6.4,0-11.4-2.4-14.9-7.2c-3.6-4.8-5.3-10.7-5.3-17.7c0-7,1.9-12.8,5.7-17.5
				c3.8-4.7,8.8-7.1,15-7.1c6.2,0,11.2,2.4,14.8,7.1c3.6,4.7,5.4,10.6,5.4,17.7c0,7.4-1.9,13.4-5.7,18C331,88.9,326,91.2,319.8,91.2
				z M319.9,84.3c3.1,0,5.8-1.3,7.9-3.9c2.2-2.6,3.2-7.3,3.2-14c0-5.5-0.9-9.8-2.7-13c-1.8-3.1-4.6-4.7-8.3-4.7
				c-7.4,0-11.1,6-11.1,17.9c0,5.8,0.9,10.2,2.8,13.2C313.7,82.8,316.4,84.3,319.9,84.3z"/>
			<path class="st0" d="M385,65.9v24.6h-3.8l-2.6-6.5c-2.8,4.8-7.1,7.2-13,7.2c-6.5,0-11.4-2.5-14.7-7.5c-3.2-5-4.8-10.7-4.8-17.3
				c0-6.9,1.8-12.8,5.4-17.6c3.6-4.8,8.6-7.2,15.1-7.2c4.8,0,8.8,1.4,11.9,4.2c3.1,2.8,5.1,6.3,5.9,10.5l-7.5,1.3
				c-1.4-5.9-4.8-8.8-10.1-8.8c-3.4,0-6.2,1.4-8.3,4.2c-2.1,2.8-3.2,7-3.2,12.8C355.2,78,359,84,366.6,84c3,0,5.4-1,7.3-3.1
				c1.9-2,2.9-4.7,2.9-8.1h-9.9v-7H385z"/>
			<path class="st0" d="M432.3,90.5h-9.2l-7.5-19.7h-12.2v19.7h-8.7V42.4h20.8c5.8,0,10.1,1.3,12.8,3.9c2.7,2.6,4.1,6,4.1,10.2
				c0,6.2-2.9,10.4-8.7,12.7L432.3,90.5z M403.5,63.8h10.8c3.1,0,5.4-0.7,7-2c1.5-1.3,2.3-3.1,2.3-5.4c0-2.1-0.8-3.8-2.3-5.1
				c-1.5-1.3-3.6-2-6.3-2h-11.5V63.8z"/>
			<path class="st0" d="M472.4,90.5h-31.2V42.4H472v7.1h-22.2v13h17.9v7h-17.9V83h22.6V90.5z"/>
			<path class="st0" d="M511,90.5h-31.2V42.4h30.9v7.1h-22.2v13h17.9v7h-17.9V83H511V90.5z"/>
			<path class="st0" d="M159.3,42.1v48.3h-8.2v-27c-9.1,4.9-15.3,11-18.8,18.5v8.5H124V42.1h8.2v26.6c4.7-5.3,11-9.8,18.8-13.5V42.1
				H159.3z"/>
			<path class="st0" d="M555,42.1v48.3h-7.4v-8.8C543,69.4,535,55.4,525.5,50.2v40.2h-7.4V42.1h7.4c9.8,3.4,17.1,12.7,22.1,21.8
				V42.1H555z"/>
		</g>
	</g>
</g>
</svg>
